<svg width="200" height="50" viewBox="0 0 200 50" fill="none" xmlns="http://www.w3.org/2000/svg">
<circle cx="25" cy="25" r="25" fill="#F8F8F6"/>
<path d="M45 25.1222C45 14.009 36.0457 5 25 5C13.9543 5 5 14.009 5 25.1222C5 35.1658 12.3137 43.4904 21.875 45V30.9388H16.7969V25.1222H21.875V20.6891C21.875 15.6459 24.8609 12.8603 29.4293 12.8603C31.6175 12.8603 33.9063 13.2533 33.9063 13.2533V18.2052H31.3843C28.8998 18.2052 28.125 19.7563 28.125 21.3476V25.1222H33.6719L32.7852 30.9388H28.125V45C37.6863 43.4904 45 35.1658 45 25.1222Z" fill="#1877F2"/>
<circle cx="100" cy="25" r="25" fill="#F8F8F6"/>
<path d="M119.19 24.9373C119.19 23.3185 119.055 22.1373 118.765 20.9123H99.9038V28.2185H110.975C110.752 30.0341 109.547 32.7685 106.868 34.6059L106.83 34.8505L112.794 39.3781L113.207 39.4185C117.002 35.9841 119.19 30.931 119.19 24.9373Z" fill="#4285F4"/>
<path d="M99.9026 44.1875C105.327 44.1875 109.88 42.4374 113.206 39.4187L106.867 34.6061C105.17 35.7655 102.894 36.5748 99.9026 36.5748C94.5901 36.5748 90.0813 33.1405 88.474 28.3936L88.2384 28.4132L82.0373 33.1164L81.9562 33.3373C85.2597 39.7686 92.0454 44.1875 99.9026 44.1875Z" fill="#34A853"/>
<path d="M88.4751 28.3937C88.051 27.1687 87.8055 25.8561 87.8055 24.4999C87.8055 23.1436 88.051 21.8312 88.4528 20.6062L88.4415 20.3453L82.1627 15.5666L81.9573 15.6624C80.5957 18.3311 79.8145 21.3281 79.8145 24.4999C79.8145 27.6718 80.5957 30.6686 81.9573 33.3374L88.4751 28.3937Z" fill="#FBBC05"/>
<path d="M99.9027 12.4249C103.675 12.4249 106.22 14.0218 107.671 15.3563L113.34 9.93125C109.858 6.75938 105.327 4.8125 99.9027 4.8125C92.0455 4.8125 85.2597 9.23121 81.9562 15.6624L88.4517 20.6062C90.0813 15.8594 94.5902 12.4249 99.9027 12.4249Z" fill="#EB4335"/>
<circle cx="175" cy="25" r="25" fill="#F8F8F6"/>
<path d="M195.125 25C195.125 36.109 186.119 45.125 175 45.125C163.881 45.125 154.875 36.109 154.875 25C154.875 13.8809 163.881 4.875 175 4.875C186.119 4.875 195.125 13.8809 195.125 25Z" fill="#283544"/>
<path d="M184.433 19.9075C184.323 19.9716 181.709 21.3236 181.709 24.3213C181.832 27.74 185.008 28.9389 185.062 28.9389C185.008 29.003 184.583 30.5722 183.324 32.217C182.325 33.6339 181.216 35.0625 179.532 35.0625C177.93 35.0625 177.355 34.1182 175.507 34.1182C173.522 34.1182 172.961 35.0625 171.441 35.0625C169.757 35.0625 168.566 33.5574 167.512 32.1538C166.144 30.3167 164.98 27.4338 164.939 24.6657C164.912 23.1989 165.213 21.757 165.979 20.5323C167.061 18.8226 168.991 17.6619 171.099 17.6236C172.714 17.5729 174.152 18.657 175.137 18.657C176.082 18.657 177.848 17.6236 179.846 17.6236C180.709 17.6245 183.009 17.8666 184.433 19.9075ZM175.001 17.3308C174.713 15.9912 175.507 14.6517 176.246 13.7972C177.191 12.7639 178.683 12.0625 179.97 12.0625C180.052 13.402 179.531 14.7158 178.601 15.6726C177.766 16.7059 176.329 17.4839 175.001 17.3308Z" fill="white"/>
</svg>
